<?xml version="1.0" encoding="UTF-8"?>
<svg version="1.1" xmlns="http://www.w3.org/2000/svg" width="199" height="161">
<path d="M0 0 C65.67 0 131.34 0 199 0 C199 53.13 199 106.26 199 161 C133.33 161 67.66 161 0 161 C0 107.87 0 54.74 0 0 Z " fill="#FEFDFC" transform="translate(0,0)"/>
<path d="M0 0 C0.495 2.475 0.495 2.475 1 5 C0.34 5 -0.32 5 -1 5 C0.57482049 15.35040645 0.57482049 15.35040645 6 24 C5.625 26.625 5.625 26.625 5 29 C-6.02878852 32.18743897 -17.12600534 35.07526916 -28.265625 37.84765625 C-28.94785629 38.01749401 -29.63008759 38.18733177 -30.33299255 38.36231613 C-35.30450167 39.59904996 -40.27713853 40.83121703 -45.25 42.0625 C-50.24493663 43.29929194 -55.23944106 44.53778124 -60.23296356 45.78027153 C-62.19405999 46.2673805 -64.15588543 46.75155157 -66.11773682 47.23561096 C-73.43731423 49.05561383 -80.68101563 51.03195154 -87.90008545 53.21897888 C-92.23502653 54.311164 -96.57046017 54.74840948 -101 54 C-104.77660021 51.48226653 -105.15348799 49.05141944 -106.1875 44.875 C-106.44575562 43.85937988 -106.44575562 43.85937988 -106.70922852 42.82324219 C-107.87436407 38.02447332 -108.65899953 33.89542506 -108 29 C-105.98198873 26.45515663 -104.18714702 25.50168373 -101.09326172 24.640625 C-99.90302902 24.30333374 -99.90302902 24.30333374 -98.68875122 23.95922852 C-97.81951019 23.72518311 -96.95026917 23.4911377 -96.0546875 23.25 C-95.13332001 22.99468506 -94.21195251 22.73937012 -93.26266479 22.47631836 C-80.93990719 19.10098147 -68.52856485 16.06124855 -56.125 13 C-51.33546169 11.81441311 -46.54656799 10.62624422 -41.7578125 9.4375 C-40.60081848 9.15132812 -39.44382446 8.86515625 -38.25177002 8.5703125 C-32.58808495 7.16430221 -26.93491319 5.72869528 -21.29589844 4.2265625 C-20.24175751 3.94627197 -19.18761658 3.66598145 -18.10153198 3.37719727 C-16.12809864 2.84951994 -14.15608495 2.31649241 -12.18582153 1.77709961 C-10.87156693 1.4253064 -10.87156693 1.4253064 -9.53076172 1.06640625 C-8.77238007 0.85959229 -8.01399841 0.65277832 -7.2326355 0.43969727 C-4.77474915 -0.04436111 -2.49894389 -0.07513241 0 0 Z " fill="#F3F5E8" transform="translate(143,83)"/>
<path d="M0 0 C1 3 1 3 0.9375 6.5 C0.8486774 11.78987918 1.93736471 16.8386286 3 22 C3.99 22 4.98 22 6 22 C6 23.65 6 25.3 6 27 C-1.20347552 29.94528564 -8.60200704 31.76970094 -16.1484375 33.6171875 C-17.52889919 33.95915705 -18.90923746 34.30162515 -20.28945923 34.64456177 C-23.91468327 35.54424877 -27.54117819 36.43869049 -31.16809082 37.33154297 C-37.62137704 38.92068121 -44.07281522 40.51727399 -50.5234375 42.1171875 C-51.21202599 42.28774406 -51.90061447 42.45830063 -52.61006927 42.63402557 C-61.26678842 44.78058502 -69.90260423 46.97931357 -78.47055054 49.46017456 C-93.72943991 53.86066511 -93.72943991 53.86066511 -100 53 C-103.52284129 49.40348712 -104.95210298 45.92578332 -106.3125 41.125 C-106.65925781 39.95195313 -107.00601563 38.77890625 -107.36328125 37.5703125 C-108.07038365 33.60533342 -108.098454 30.87964603 -107 27 C-103.57063219 24.50553866 -100.20939489 23.31948338 -96.13354492 22.25366211 C-94.96986893 21.94586319 -93.80619293 21.63806427 -92.60725403 21.32093811 C-90.71918282 20.8352964 -90.71918282 20.8352964 -88.79296875 20.33984375 C-87.4578183 19.99086379 -86.12279377 19.64140174 -84.78788757 19.29148865 C-70.03784328 15.44019642 -55.24308146 11.76138376 -40.44696045 8.09197998 C-34.71595604 6.67033167 -28.98588516 5.24493281 -23.2561245 3.81828117 C-21.28043285 3.32689013 -19.30434483 2.83711954 -17.32820129 2.34754944 C-16.14393051 2.05311447 -14.95965973 1.7586795 -13.73950195 1.45532227 C-12.69969681 1.19743423 -11.65989166 0.9395462 -10.58857727 0.67384338 C-4.13560274 -1.00595742 -4.13560274 -1.00595742 0 0 Z " fill="#F3F5E9" transform="translate(124,13)"/>
<path d="M0 0 C0.495 1.98 0.495 1.98 1 4 C0.34 4 -0.32 4 -1 4 C-1 4.66 -1 5.32 -1 6 C-1.62648438 6.13277344 -2.25296875 6.26554687 -2.8984375 6.40234375 C-3.71570313 6.57894531 -4.53296875 6.75554688 -5.375 6.9375 C-6.18710938 7.11152344 -6.99921875 7.28554687 -7.8359375 7.46484375 C-10.029463 7.92330693 -10.029463 7.92330693 -12 9 C-12.72693904 10.97888961 -13.39816251 12.97954558 -14 15 C-13.01 14.67 -12.02 14.34 -11 14 C-10.91087781 17.83225427 -11.12132271 21.26562152 -12 25 C-8.85548824 25.14625636 -6.49977985 25.20503789 -3.5625 24 C-0.28818645 22.7222191 2.51768358 22.86343857 6 23 C6 24.65 6 26.3 6 28 C-1.91024359 30.05487061 -9.82126478 32.1067102 -17.73326683 34.15479851 C-21.40800742 35.106135 -25.08248248 36.05847151 -28.75634766 37.01318359 C-32.30891865 37.93633462 -35.86219082 38.85674096 -39.41594315 39.7753334 C-40.76439803 40.12438577 -42.11260739 40.47438819 -43.46055222 40.82540512 C-47.63368378 41.91172719 -51.81251277 42.97042012 -56 44 C-56.98494446 44.24542542 -57.96988892 44.49085083 -58.98468018 44.74371338 C-60.30831573 45.04677399 -60.30831573 45.04677399 -61.65869141 45.35595703 C-62.40921783 45.53144073 -63.15974426 45.70692444 -63.93301392 45.88772583 C-66.56799303 46.03085214 -67.83529939 45.48727281 -70 44 C-71.12725487 41.43401195 -71.98163406 39.10815466 -72.75 36.4375 C-72.965354 35.71675293 -73.18070801 34.99600586 -73.40258789 34.25341797 C-74.89107573 29.01455339 -75.65893525 24.45974925 -75 19 C-72.80948115 16.80948115 -71.79546396 16.49131091 -68.87109375 15.703125 C-68.01378662 15.46980469 -67.15647949 15.23648438 -66.27319336 14.99609375 C-65.33741455 14.74988281 -64.40163574 14.50367187 -63.4375 14.25 C-62.46240479 13.98832031 -61.48730957 13.72664063 -60.48266602 13.45703125 C-52.12339757 11.238684 -43.71718083 9.23284178 -35.2956543 7.26635742 C-27.31774799 5.38132718 -19.45508217 3.1988966 -11.63452148 0.74023438 C-4.30608304 -1.47912202 -4.30608304 -1.47912202 0 0 Z " fill="#F3F7EC" transform="translate(101,57)"/>
<path d="M0 0 C0.495 1.485 0.495 1.485 1 3 C-0.71703125 3.4021875 -0.71703125 3.4021875 -2.46875 3.8125 C-13.11317644 6.31945464 -23.73828939 8.90191541 -34.35009766 11.54321289 C-35.72082276 11.88421082 -37.09174791 12.22440585 -38.46289062 12.5637207 C-46.57109464 14.57187378 -54.62122121 16.72641303 -62.64477539 19.05151367 C-67.8987129 20.53674595 -73.19579884 21.83312626 -78.5 23.125 C-87.3389091 25.25251448 -87.3389091 25.25251448 -96 28 C-96.37634203 34.80203375 -95.77471079 39.75690073 -93 46 C-86.68351671 47.45463695 -82.1118435 46.26325164 -75.984375 44.41015625 C-74.0157363 43.84386002 -72.04630837 43.2803015 -70.07617188 42.71923828 C-68.56639771 42.28626434 -68.56639771 42.28626434 -67.02612305 41.84454346 C-62.25747048 40.51368735 -57.45354599 39.34223483 -52.640625 38.18359375 C-51.70271118 37.95644684 -50.76479736 37.72929993 -49.79846191 37.49526978 C-46.94959689 36.80673202 -44.09994006 36.12157341 -41.25 35.4375 C-37.4418281 34.52313768 -33.63440859 33.60578679 -29.828125 32.68359375 C-28.91164185 32.46182465 -27.99515869 32.24005554 -27.05090332 32.01156616 C-20.31088944 30.36314575 -13.62356283 28.56008246 -6.97052002 26.588974 C-2.31639064 25.24186017 2.17785389 24.49845919 7 24 C6.67 25.32 6.34 26.64 6 28 C-5.02878852 31.18743897 -16.12600534 34.07526916 -27.265625 36.84765625 C-27.94785629 37.01749401 -28.63008759 37.18733177 -29.33299255 37.36231613 C-34.30450167 38.59904996 -39.27713853 39.83121703 -44.25 41.0625 C-49.24493663 42.29929194 -54.23944106 43.53778124 -59.23296356 44.78027153 C-61.19405999 45.2673805 -63.15588543 45.75155157 -65.11773682 46.23561096 C-72.43731423 48.05561383 -79.68101563 50.03195154 -86.90008545 52.21897888 C-91.23502653 53.311164 -95.57046017 53.74840948 -100 53 C-103.77660021 50.48226653 -104.15348799 48.05141944 -105.1875 43.875 C-105.44575562 42.85937988 -105.44575562 42.85937988 -105.70922852 41.82324219 C-106.87436407 37.02447332 -107.65899953 32.89542506 -107 28 C-104.98198873 25.45515663 -103.18714702 24.50168373 -100.09326172 23.640625 C-98.90302902 23.30333374 -98.90302902 23.30333374 -97.68875122 22.95922852 C-96.81951019 22.72518311 -95.95026917 22.4911377 -95.0546875 22.25 C-94.13332001 21.99468506 -93.21195251 21.73937012 -92.26266479 21.47631836 C-79.93990719 18.10098147 -67.52856485 15.06124855 -55.125 12 C-51.52100481 11.10787864 -47.91728961 10.21464797 -44.31390381 9.32006836 C-41.96095055 8.73610076 -39.60764293 8.15355896 -37.25396729 7.57250977 C-31.57440423 6.16466662 -25.90918338 4.71969859 -20.26074219 3.19140625 C-19.20208954 2.906604 -18.14343689 2.62180176 -17.05270386 2.32836914 C-15.0654561 1.79049431 -13.08036475 1.24456387 -11.09793091 0.68920898 C-10.21853851 0.45145752 -9.33914612 0.21370605 -8.43310547 -0.03125 C-7.669487 -0.24330078 -6.90586853 -0.45535156 -6.11911011 -0.67382812 C-3.71232858 -1.04427817 -2.24703258 -0.94144539 0 0 Z " fill="#E5863D" transform="translate(142,84)"/>
<path d="M0 0 C0.495 1.485 0.495 1.485 1 3 C0.17242187 3.14695312 -0.65515625 3.29390625 -1.5078125 3.4453125 C-9.02542385 4.85790902 -16.37079015 6.59431948 -23.734375 8.6640625 C-32.54370858 11.10256884 -41.38501318 13.38221317 -50.2578125 15.578125 C-51.47272369 15.87907074 -52.68763489 16.18001648 -53.93936157 16.49008179 C-58.95229346 17.72961715 -63.96615577 18.96531495 -68.98095703 20.19726562 C-72.69926158 21.11181233 -76.416107 22.0321049 -80.1328125 22.953125 C-81.2680838 23.23021301 -82.4033551 23.50730103 -83.57302856 23.79278564 C-84.62287933 24.05355896 -85.6727301 24.31433228 -86.75439453 24.58300781 C-87.67398956 24.80917786 -88.59358459 25.0353479 -89.54104614 25.26837158 C-91.90096147 25.97053243 -93.89799862 26.71874823 -96 28 C-97.50985351 32.03568321 -96.71886813 35.17559209 -95.625 39.25 C-95.21121094 40.83554688 -95.21121094 40.83554688 -94.7890625 42.453125 C-94.24447392 44.91091719 -94.24447392 44.91091719 -93 46 C-86.22671235 46.3501103 -80.41602751 45.43029734 -73.875 43.75 C-72.9476001 43.52038574 -72.0202002 43.29077148 -71.06469727 43.05419922 C-64.82007867 41.49750694 -58.60061238 39.84943696 -52.390625 38.16015625 C-45.12358732 36.21274552 -37.80539702 34.45804517 -30.50268555 32.65039062 C-22.85267435 30.74547355 -15.23805844 28.75581505 -7.68041992 26.51000977 C-3.10901736 25.18349438 1.28203699 24.49276503 6 24 C5.67 25.32 5.34 26.64 5 28 C-21.97979549 35.19912165 -49.03444944 42.07178022 -76.13769531 48.79052734 C-79.06623371 49.51718322 -81.99308253 50.24956928 -84.91699219 50.99462891 C-86.51655762 51.40140869 -86.51655762 51.40140869 -88.1484375 51.81640625 C-89.01388184 52.0388501 -89.87932617 52.26129395 -90.77099609 52.49047852 C-94.1279663 53.25783852 -96.57744154 53.57042641 -100 53 C-103.51047357 49.38884363 -104.95085107 45.93020123 -106.3125 41.125 C-106.65925781 39.95195313 -107.00601563 38.77890625 -107.36328125 37.5703125 C-108.07038365 33.60533342 -108.098454 30.87964603 -107 27 C-103.57063219 24.50553866 -100.20939489 23.31948338 -96.13354492 22.25366211 C-94.96986893 21.94586319 -93.80619293 21.63806427 -92.60725403 21.32093811 C-90.71918282 20.8352964 -90.71918282 20.8352964 -88.79296875 20.33984375 C-87.4578183 19.99086379 -86.12279377 19.64140174 -84.78788757 19.29148865 C-70.03784328 15.44019642 -55.24308146 11.76138376 -40.44696045 8.09197998 C-34.71595604 6.67033167 -28.98588516 5.24493281 -23.2561245 3.81828117 C-21.28043285 3.32689013 -19.30434483 2.83711954 -17.32820129 2.34754944 C-16.14393051 2.05311447 -14.95965973 1.7586795 -13.73950195 1.45532227 C-12.69969681 1.19743423 -11.65989166 0.9395462 -10.58857727 0.67384338 C-4.13560274 -1.00595742 -4.13560274 -1.00595742 0 0 Z " fill="#E48740" transform="translate(124,13)"/>
<path d="M0 0 C0 0.99 0 1.98 0 3 C-0.80703369 3.20044922 -1.61406738 3.40089844 -2.44555664 3.60742188 C-5.60014011 4.39167742 -8.75446732 5.17694584 -11.90856934 5.96313477 C-13.3426847 6.3205867 -14.77684802 6.67784632 -16.21105957 7.03491211 C-24.4471175 9.08663866 -32.67541129 11.16366291 -40.88671875 13.3125 C-41.9488131 13.58978943 -41.9488131 13.58978943 -43.03236389 13.87268066 C-46.43869552 14.76245206 -49.84352552 15.65741084 -53.24633789 16.56054688 C-54.46957764 16.88087891 -55.69281738 17.20121094 -56.953125 17.53125 C-58.02723633 17.81548828 -59.10134766 18.09972656 -60.20800781 18.39257812 C-63 19 -63 19 -67 19 C-67.44032071 26.51806849 -66.28612778 32.84224277 -64 40 C-57.12596162 39.39349309 -50.68679901 38.09162291 -44.0078125 36.3828125 C-42.98122528 36.12498993 -41.95463806 35.86716736 -40.89694214 35.60153198 C-37.63820506 34.78154776 -34.38163572 33.95328567 -31.125 33.125 C-28.94674521 32.57630407 -26.76836082 32.02812237 -24.58984375 31.48046875 C-8.92108929 28.27526202 -8.92108929 28.27526202 6 23 C6 24.65 6 26.3 6 28 C-1.91024359 30.05487061 -9.82126478 32.1067102 -17.73326683 34.15479851 C-21.40800742 35.106135 -25.08248248 36.05847151 -28.75634766 37.01318359 C-32.30891865 37.93633462 -35.86219082 38.85674096 -39.41594315 39.7753334 C-40.76439803 40.12438577 -42.11260739 40.47438819 -43.46055222 40.82540512 C-47.63368378 41.91172719 -51.81251277 42.97042012 -56 44 C-56.98494446 44.24542542 -57.96988892 44.49085083 -58.98468018 44.74371338 C-60.30831573 45.04677399 -60.30831573 45.04677399 -61.65869141 45.35595703 C-62.40921783 45.53144073 -63.15974426 45.70692444 -63.93301392 45.88772583 C-66.56799303 46.03085214 -67.83529939 45.48727281 -70 44 C-71.12725487 41.43401195 -71.98163406 39.10815466 -72.75 36.4375 C-72.965354 35.71675293 -73.18070801 34.99600586 -73.40258789 34.25341797 C-74.89107573 29.01455339 -75.65893525 24.45974925 -75 19 C-72.80948115 16.80948115 -71.79546396 16.49131091 -68.87109375 15.703125 C-68.01378662 15.46980469 -67.15647949 15.23648438 -66.27319336 14.99609375 C-65.33741455 14.74988281 -64.40163574 14.50367187 -63.4375 14.25 C-62.46240479 13.98832031 -61.48730957 13.72664063 -60.48266602 13.45703125 C-52.12339757 11.238684 -43.71718083 9.23284178 -35.2956543 7.26635742 C-27.31774799 5.38132718 -19.45508217 3.1988966 -11.63452148 0.74023438 C-4.30608304 -1.47912202 -4.30608304 -1.47912202 0 0 Z " fill="#E5863D" transform="translate(101,57)"/>
<path d="M0 0 C0.495 0.99 0.495 0.99 1 2 C0.34 2 -0.32 2 -1 2 C-1 2.66 -1 3.32 -1 4 C-1.62648437 4.13277344 -2.25296875 4.26554687 -2.8984375 4.40234375 C-3.71570313 4.57894531 -4.53296875 4.75554688 -5.375 4.9375 C-6.18710938 5.11152344 -6.99921875 5.28554687 -7.8359375 5.46484375 C-10.029463 5.92330693 -10.029463 5.92330693 -12 7 C-12.72693904 8.97888961 -13.39816251 10.97954558 -14 13 C-13.01 12.67 -12.02 12.34 -11 12 C-10.91087781 15.83225427 -11.12132271 19.26562152 -12 23 C-8.77680586 23.14991601 -6.44390284 23.18405727 -3.4375 21.9375 C-0.52421683 20.81700647 1.04504207 21.15572631 4 22 C1.20543798 23.49986833 -1.41723221 24.47667233 -4.49316406 25.23681641 C-5.37377502 25.45689362 -6.25438599 25.67697083 -7.16168213 25.90371704 C-8.10348328 26.13400604 -9.04528442 26.36429504 -10.015625 26.6015625 C-10.98659119 26.8428891 -11.95755737 27.0842157 -12.95794678 27.33285522 C-16.05422003 28.10133364 -19.15206663 28.8632446 -22.25 29.625 C-24.35166958 30.14540109 -26.45323342 30.66622937 -28.5546875 31.1875 C-33.70190919 32.46328981 -38.85043749 33.73369376 -44 35 C-44.33 34.34 -44.66 33.68 -45 33 C-43.87980469 32.72285156 -42.75960937 32.44570312 -41.60546875 32.16015625 C-40.13279698 31.79433333 -38.66014158 31.42844447 -37.1875 31.0625 C-36.44951172 30.88009766 -35.71152344 30.69769531 -34.95117188 30.50976562 C-31.92939016 29.7577385 -28.95543282 28.98514427 -26 28 C-26 27.34 -26 26.68 -26 26 C-24.35 25.34 -22.7 24.68 -21 24 C-21.99 23.67 -22.98 23.34 -24 23 C-24.94921875 20.27734375 -24.94921875 20.27734375 -25.6875 16.9375 C-25.93886719 15.83277344 -26.19023438 14.72804688 -26.44921875 13.58984375 C-26.63097656 12.73519531 -26.81273438 11.88054687 -27 11 C-28.80252869 10.29805007 -28.80252869 10.29805007 -31 10 C-32.3460045 10.64069814 -33.67898721 11.3092414 -35 12 C-37.359375 12.1953125 -37.359375 12.1953125 -39.75 12.125 C-40.54921875 12.10695313 -41.3484375 12.08890625 -42.171875 12.0703125 C-42.77515625 12.04710938 -43.3784375 12.02390625 -44 12 C-41.32087784 10.57220801 -38.81885857 9.58187015 -35.87402344 8.85498047 C-35.07349548 8.65492401 -34.27296753 8.45486755 -33.44818115 8.24874878 C-32.59387512 8.04033356 -31.73956909 7.83191833 -30.859375 7.6171875 C-29.97719299 7.39805695 -29.09501099 7.17892639 -28.18609619 6.95315552 C-25.37513988 6.25600275 -22.56261628 5.56542186 -19.75 4.875 C-17.84103874 4.40277645 -15.93218324 3.93012518 -14.0234375 3.45703125 C-9.35016986 2.2997252 -4.67548603 1.14830949 0 0 Z " fill="#F6F2DE" transform="translate(101,59)"/>
<path d="M0 0 C0.495 1.485 0.495 1.485 1 3 C-0.71703125 3.4021875 -0.71703125 3.4021875 -2.46875 3.8125 C-13.11317644 6.31945464 -23.73828939 8.90191541 -34.35009766 11.54321289 C-35.72082276 11.88421082 -37.09174791 12.22440585 -38.46289062 12.5637207 C-46.57109464 14.57187378 -54.62122121 16.72641303 -62.64477539 19.05151367 C-67.8987129 20.53674595 -73.19579884 21.83312626 -78.5 23.125 C-87.3389091 25.25251448 -87.3389091 25.25251448 -96 28 C-96.33 30.97 -96.66 33.94 -97 37 C-97.66 37 -98.32 37 -99 37 C-99.05399736 35.54207116 -99.09279177 34.08357288 -99.125 32.625 C-99.15980469 31.40683594 -99.15980469 31.40683594 -99.1953125 30.1640625 C-99 28 -99 28 -97 26 C-98.32 25.34 -99.64 24.68 -101 24 C-82.3425628 18.8086578 -63.57128173 14.09995392 -44.77539062 9.44042969 C-43.7912619 9.19606171 -42.80713318 8.95169373 -41.79318237 8.69992065 C-39.82871505 8.21226079 -37.8639751 7.72569779 -35.8989563 7.24026489 C-30.76196259 5.96452089 -25.64130995 4.64369388 -20.53271484 3.25830078 C-19.4817009 2.97539688 -18.43068695 2.69249298 -17.3478241 2.40101624 C-15.3355506 1.85681461 -13.32540974 1.30464583 -11.31782532 0.74339294 C-10.41589951 0.50008743 -9.51397369 0.25678192 -8.5847168 0.00610352 C-7.79365036 -0.21270981 -7.00258392 -0.43152313 -6.18754578 -0.65696716 C-3.74530737 -1.03993879 -2.27800652 -0.96250957 0 0 Z " fill="#E5863C" transform="translate(142,84)"/>
<path d="M0 0 C13.60063512 5.02907205 13.60063512 5.02907205 17.796875 8.9921875 C18.484375 11.6796875 18.484375 11.6796875 17.796875 13.9921875 C13.96828464 16.54458107 12.3698242 16.41242888 7.796875 15.9921875 C4.28068402 14.94952924 0.92920624 13.59146465 -2.453125 12.1796875 C-3.3503125 11.82326172 -4.2475 11.46683594 -5.171875 11.09960938 C-12.92740229 7.93586508 -12.92740229 7.93586508 -15.203125 4.9921875 C-15.015625 1.8671875 -15.015625 1.8671875 -14.203125 -1.0078125 C-9.84018438 -3.18928281 -4.43130629 -1.39424027 0 0 Z " fill="#ED8131" transform="translate(166.203125,77.0078125)"/>
<path d="M0 0 C3.375 0.4375 3.375 0.4375 5.375 2.4375 C5.16808125 7.41734457 3.65982794 9.78708467 0.25 13.3125 C-0.55695313 14.16457031 -1.36390625 15.01664063 -2.1953125 15.89453125 C-3.39800781 17.15330078 -3.39800781 17.15330078 -4.625 18.4375 C-5.9671719 19.9505388 -7.30151997 21.47058429 -8.625 23 C-11.53269231 26.34519231 -11.53269231 26.34519231 -12.625 27.4375 C-15.5625 27.625 -15.5625 27.625 -18.625 27.4375 C-20.625 25.4375 -20.625 25.4375 -21.140625 22.75390625 C-20.39196504 17.93866148 -17.75826854 15.71842277 -14.375 12.375 C-13.20168645 11.17718869 -12.02978103 9.97799622 -10.859375 8.77734375 C-10.29847168 8.21200928 -9.73756836 7.6466748 -9.15966797 7.06420898 C-7.43309489 5.29336621 -7.43309489 5.29336621 -5.4296875 2.53125 C-3.625 0.4375 -3.625 0.4375 0 0 Z " fill="#ED802E" transform="translate(161.625,13.5625)"/>
<path d="M0 0 C0.66 0 1.32 0 2 0 C2 2.3125 2 2.3125 1 5 C-1.55518097 6.38293093 -4.20866129 7.21791649 -7 8 C-7 8.33 -7 8.66 -7 9 C-4.69 9.33 -2.38 9.66 0 10 C-2.86981217 11.91320811 -4.62649008 12.56005285 -7.90771484 13.37280273 C-8.90660736 13.62323837 -9.90549988 13.87367401 -10.93466187 14.13169861 C-12.5564183 14.5286367 -12.5564183 14.5286367 -14.2109375 14.93359375 C-15.33005524 15.21219742 -16.44917297 15.49080109 -17.60220337 15.77784729 C-21.19179602 16.66990245 -24.78337601 17.55366324 -28.375 18.4375 C-30.75663828 19.02878209 -33.13815024 19.62057324 -35.51953125 20.21289062 C-46.32790271 22.89430463 -57.14290801 25.52196207 -68 28 C-68 27.34 -68 26.68 -68 26 C-66.68 26 -65.36 26 -64 26 C-64 25.34 -64 24.68 -64 24 C-63.36835937 23.90203125 -62.73671875 23.8040625 -62.0859375 23.703125 C-54.28971206 22.40000951 -46.39809507 20.82838737 -39 18 C-38.34 17.01 -37.68 16.02 -37 15 C-37.33 15.33 -37.66 15.66 -38 16 C-39.51928038 16.07179964 -41.04167482 16.08392007 -42.5625 16.0625 C-43.38878906 16.05347656 -44.21507813 16.04445313 -45.06640625 16.03515625 C-46.02353516 16.01775391 -46.02353516 16.01775391 -47 16 C-44.33718231 14.58331682 -41.84536816 13.58609014 -38.92163086 12.85498047 C-38.13078598 12.65492401 -37.3399411 12.45486755 -36.52513123 12.24874878 C-35.25778893 11.93612595 -35.25778893 11.93612595 -33.96484375 11.6171875 C-33.08977676 11.39805695 -32.21470978 11.17892639 -31.31312561 10.95315552 C-29.46704788 10.49205034 -27.62038808 10.03327009 -25.77319336 9.57666016 C-22.94290845 8.87633826 -20.11492713 8.16724184 -17.28710938 7.45703125 C-15.49231802 7.00989244 -13.6974003 6.56326049 -11.90234375 6.1171875 C-11.05542465 5.90472382 -10.20850555 5.69226013 -9.33592224 5.47335815 C-8.54822952 5.27960602 -7.7605368 5.08585388 -6.94897461 4.88623047 C-5.91117104 4.62880569 -5.91117104 4.62880569 -4.85240173 4.36618042 C-3 4 -3 4 0 4 C0 2.68 0 1.36 0 0 Z " fill="#FDF3E5" transform="translate(107,81)"/>
<path d="M0 0 C0.33 2.31 0.66 4.62 1 7 C-2.6621007 10.36256212 -6.60095796 11.17493769 -11.3125 12.25 C-12.04662109 12.435625 -12.78074219 12.62125 -13.53710938 12.8125 C-18.39855022 13.9512936 -22.10627463 14.00848237 -27 13 C-27.33 11.02 -27.66 9.04 -28 7 C-23.31013375 3.46959355 -19.14109971 1.93780876 -13.4375 0.6875 C-12.3247168 0.41583008 -12.3247168 0.41583008 -11.18945312 0.13867188 C-7.14443281 -0.78703625 -4.07148884 -1.24966489 0 0 Z " fill="#F07D26" transform="translate(174,49)"/>
<path d="M0 0 C1.21236328 0.04060547 1.21236328 0.04060547 2.44921875 0.08203125 C3.06410156 0.11683594 3.67898437 0.15164062 4.3125 0.1875 C3.83167969 0.58582031 3.35085937 0.98414062 2.85546875 1.39453125 C0.93858175 3.62200247 0.83508357 4.97584669 0.625 7.875 C0.55925781 8.68324219 0.49351563 9.49148437 0.42578125 10.32421875 C0.38839844 10.93910156 0.35101563 11.55398437 0.3125 12.1875 C1.3025 12.5175 2.2925 12.8475 3.3125 13.1875 C4.26171875 15.47265625 4.26171875 15.47265625 5 18.25 C5.37705078 19.62865234 5.37705078 19.62865234 5.76171875 21.03515625 C5.94347656 21.74542969 6.12523437 22.45570313 6.3125 23.1875 C8.2925 23.5175 10.2725 23.8475 12.3125 24.1875 C9.03948081 27.15659598 6.93184238 27.53104794 2.5625 27.375 C1.08523437 27.33439453 1.08523437 27.33439453 -0.421875 27.29296875 C-1.16953125 27.25816406 -1.9171875 27.22335938 -2.6875 27.1875 C-5.82535747 19.20022645 -8.42317448 11.86845883 -7.6875 3.1875 C-5.46128776 0.06796692 -3.72170718 -0.16181336 0 0 Z " fill="#F07D26" transform="translate(42.6875,108.8125)"/>
<path d="M0 0 C1.32 0.33 2.64 0.66 4 1 C3.34 1 2.68 1 2 1 C2.33 2.98 2.66 4.96 3 7 C3.99 7.33 4.98 7.66 6 8 C6.9140625 9.890625 6.9140625 9.890625 7.625 12.25 C7.87121094 13.05824219 8.11742187 13.86648437 8.37109375 14.69921875 C9.03225326 17.11799485 9.60058809 19.52364616 10 22 C12.31 22.33 14.62 22.66 17 23 C16.01 23.33 15.02 23.66 14 24 C14 24.66 14 25.32 14 26 C10.37671381 27.20776206 7.80388473 27.40040892 4 27 C0.41220038 23.39871241 -0.96010531 19.84564586 -2.3125 15 C-2.65925781 13.80375 -3.00601562 12.6075 -3.36328125 11.375 C-3.97966718 8.10777643 -3.92568779 6.15331068 -3 3 C-2.01 2.67 -1.02 2.34 0 2 C0 1.34 0 0.68 0 0 Z " fill="#F07C24" transform="translate(20,39)"/>
<path d="M0 0 C6.62177926 0.30656385 11.22125154 1.74288723 17 5 C17 7.31 17 9.62 17 12 C14.3333581 13.33332095 12.83319697 12.67102033 10 12 C10 11.34 10 10.68 10 10 C9.29875 9.87625 8.5975 9.7525 7.875 9.625 C4.82343613 8.96161655 1.94659062 8.02788045 -1 7 C-0.67 4.69 -0.34 2.38 0 0 Z " fill="#ED7E2C" transform="translate(154,75)"/>
<path d="M0 0 C0 0.99 0 1.98 0 3 C-4.4653574 4.12253753 -8.93110559 5.24350239 -13.3972168 6.36303711 C-14.91522787 6.74379396 -16.4331329 7.12497387 -17.95092773 7.5065918 C-20.13757767 8.05630025 -22.32460945 8.60446622 -24.51171875 9.15234375 C-25.18587326 9.3221727 -25.86002777 9.49200165 -26.55461121 9.66697693 C-30.02224952 10.53398877 -33.48773884 11.33535849 -37 12 C-37 11.34 -37 10.68 -37 10 C-38.98 10 -40.96 10 -43 10 C-39.4618236 8.00059498 -35.86151464 7.08320069 -31.93359375 6.08984375 C-31.25829117 5.91747696 -30.58298859 5.74511017 -29.88722229 5.56752014 C-27.73838395 5.01986532 -25.58803644 4.47844429 -23.4375 3.9375 C-21.28371752 3.3917789 -19.13026931 2.84476998 -16.97706604 2.29676819 C-15.02623825 1.80089279 -13.07454098 1.30844179 -11.12280273 0.81616211 C-4.14357858 -1.00789749 -4.14357858 -1.00789749 0 0 Z " fill="#E48840" transform="translate(101,57)"/>
<path d="M0 0 C1.32 0.66 2.64 1.32 4 2 C3.67 4.64 3.34 7.28 3 10 C3.99 10 4.98 10 6 10 C6.15855469 10.77085938 6.31710938 11.54171875 6.48046875 12.3359375 C6.71378906 13.33882812 6.94710937 14.34171875 7.1875 15.375 C7.40792969 16.37273437 7.62835938 17.37046875 7.85546875 18.3984375 C8.7767034 21.23122363 8.7767034 21.23122363 11.61328125 22.3515625 C12.40089844 22.56554687 13.18851563 22.77953125 14 23 C14 23.66 14 24.32 14 25 C7.25 27.125 7.25 27.125 5 26 C5 24.35 5 22.7 5 21 C4.34 21 3.68 21 3 21 C2.79503906 20.14535156 2.59007812 19.29070312 2.37890625 18.41015625 C1.97478516 16.75306641 1.97478516 16.75306641 1.5625 15.0625 C1.16224609 13.40927734 1.16224609 13.40927734 0.75390625 11.72265625 C0.27004275 9.10578746 0.27004275 9.10578746 -1 8 C-1.125 4.5 -1.125 4.5 -1 1 C-0.67 0.67 -0.34 0.34 0 0 Z " fill="#EF7D27" transform="translate(28,76)"/>
<path d="M0 0 C2.375 -0.125 2.375 -0.125 5 0 C5.66 0.66 6.32 1.32 7 2 C6.625 5.125 6.625 5.125 6 8 C4.35 8 2.7 8 1 8 C0.34 9.98 -0.32 11.96 -1 14 C-1.99 14 -2.98 14 -4 14 C-4 14.99 -4 15.98 -4 17 C-5.65 17 -7.3 17 -9 17 C-8.67 15.35 -8.34 13.7 -8 12 C-7.34 12 -6.68 12 -6 12 C-6.0825 11.278125 -6.165 10.55625 -6.25 9.8125 C-5.92256852 6.12889581 -4.53906064 4.61373889 -2 2 C-1.34 2 -0.68 2 0 2 C0 1.34 0 0.68 0 0 Z " fill="#F07D25" transform="translate(160,14)"/>
<path d="M0 0 C0.99 3.96 1.98 7.92 3 12 C1.3603125 12.185625 1.3603125 12.185625 -0.3125 12.375 C-4.07381802 12.75464801 -4.07381802 12.75464801 -7 15 C-8.45184478 10.46298506 -9.23509196 6.81938524 -9 2 C-5.62902617 0.50178941 -3.79557881 0 0 0 Z " fill="#E79D27" transform="translate(84,66)"/>
<path d="M0 0 C0.66 0.33 1.32 0.66 2 1 C-4.68333431 7.86898248 -13.7868463 8.95305072 -23 10 C-23 9.01 -23 8.02 -23 7 C-23.66 6.34 -24.32 5.68 -25 5 C-17.82621854 2.71416583 -11.07740405 1.5826482 -3.5546875 1.2109375 C-1.06719448 1.28270171 -1.06719448 1.28270171 0 0 Z " fill="#FEF8EF" transform="translate(70,95)"/>
<path d="M0 0 C-0.33 1.32 -0.66 2.64 -1 4 C-3.8314037 4.81977607 -6.66482902 5.63094274 -9.5 6.4375 C-10.68722656 6.78264648 -10.68722656 6.78264648 -11.8984375 7.13476562 C-16.9401646 8.56049993 -21.78508177 9.47970426 -27 10 C-26.34 9.34 -25.68 8.68 -25 8 C-25.33 7.34 -25.66 6.68 -26 6 C-23.0835095 5.18686324 -20.16681631 4.3744665 -17.25 3.5625 C-16.425 3.33240234 -15.6 3.10230469 -14.75 2.86523438 C-13.95078125 2.64287109 -13.1515625 2.42050781 -12.328125 2.19140625 C-11.5949707 1.98717041 -10.86181641 1.78293457 -10.10644531 1.57250977 C-9.41131836 1.38358154 -8.71619141 1.19465332 -8 1 C-7.33323242 0.81042725 -6.66646484 0.62085449 -5.97949219 0.42553711 C-4 0 -4 0 0 0 Z " fill="#E38F4D" transform="translate(149,108)"/>
<path d="M0 0 C0.66 0 1.32 0 2 0 C2 0.66 2 1.32 2 2 C1.195625 2.763125 0.39125 3.52625 -0.4375 4.3125 C-3.07298537 7.07654563 -3.68186067 8.28837448 -4 12 C-4.66 12 -5.32 12 -6 12 C-6.33 13.65 -6.66 15.3 -7 17 C-7.99 17 -8.98 17 -10 17 C-12.72926391 19.31256494 -12.72926391 19.31256494 -15 22 C-15 22.66 -15 23.32 -15 24 C-12.69 24.33 -10.38 24.66 -8 25 C-8.33 25.66 -8.66 26.32 -9 27 C-11.875 27.125 -11.875 27.125 -15 27 C-17 25 -17 25 -17.515625 22.31640625 C-16.76696504 17.50116148 -14.13326854 15.28092277 -10.75 11.9375 C-9.57668645 10.73968869 -8.40478103 9.54049622 -7.234375 8.33984375 C-6.67556641 7.77507324 -6.11675781 7.21030273 -5.54101562 6.62841797 C-3.80353598 4.84318489 -3.80353598 4.84318489 -1.703125 2.06640625 C-0.86007813 1.04353516 -0.86007813 1.04353516 0 0 Z " fill="#E68338" transform="translate(158,14)"/>
<path d="M0 0 C0.495 0.99 0.495 0.99 1 2 C0.34 2 -0.32 2 -1 2 C-1 2.66 -1 3.32 -1 4 C-1.65226562 4.04898438 -2.30453125 4.09796875 -2.9765625 4.1484375 C-7.96554602 4.5752237 -12.27836655 5.25504851 -17 7 C-18.41407073 7.34417948 -19.83093639 7.67702316 -21.25 8 C-24.99810214 8.66407795 -24.99810214 8.66407795 -27 11 C-27.61875 10.835 -28.2375 10.67 -28.875 10.5 C-31.01383466 9.75217585 -31.01383466 9.75217585 -32.8359375 10.9609375 C-35.34237173 12.16438787 -36.99027 12.20616853 -39.75 12.125 C-40.54921875 12.10695313 -41.3484375 12.08890625 -42.171875 12.0703125 C-42.77515625 12.04710938 -43.3784375 12.02390625 -44 12 C-41.32087784 10.57220801 -38.81885857 9.58187015 -35.87402344 8.85498047 C-35.07349548 8.65492401 -34.27296753 8.45486755 -33.44818115 8.24874878 C-32.59387512 8.04033356 -31.73956909 7.83191833 -30.859375 7.6171875 C-29.97719299 7.39805695 -29.09501099 7.17892639 -28.18609619 6.95315552 C-25.37513988 6.25600275 -22.56261628 5.56542186 -19.75 4.875 C-17.84103874 4.40277645 -15.93218324 3.93012518 -14.0234375 3.45703125 C-9.35016986 2.2997252 -4.67548603 1.14830949 0 0 Z " fill="#FAE3BD" transform="translate(101,59)"/>
<path d="M0 0 C0.33 0.99 0.66 1.98 1 3 C-1.56076097 3.67404284 -4.12326583 4.339414 -6.6875 5 C-7.40873047 5.19078125 -8.12996094 5.3815625 -8.87304688 5.578125 C-13.91905019 6.86842722 -17.93352112 7.68882629 -23 6 C-24.33106622 5.65772583 -25.66400079 5.32248257 -27 5 C-23.25414902 3.96350499 -19.50278991 2.9485563 -15.75 1.9375 C-14.68652344 1.64294922 -13.62304688 1.34839844 -12.52734375 1.04492188 C-11.50253906 0.77099609 -10.47773438 0.49707031 -9.421875 0.21484375 C-8.47924805 -0.04176025 -7.53662109 -0.29836426 -6.56542969 -0.56274414 C-3.93036763 -1.01186825 -2.44071785 -1.08103749 0 0 Z " fill="#E58942" transform="translate(142,84)"/>
<path d="M0 0 C-1.65 0.66 -3.3 1.32 -5 2 C-5.33 5.3 -5.66 8.6 -6 12 C-6.66 12 -7.32 12 -8 12 C-8 9.36 -8 6.72 -8 4 C-8.99 3.67 -9.98 3.34 -11 3 C-11.20906114 8.12199804 -10.5084735 12.11964456 -9 17 C-8.63729412 18.99488234 -8.29359301 20.9937811 -8 23 C-7.34 23 -6.68 23 -6 23 C-6 24.32 -6 25.64 -6 27 C-6.66 27 -7.32 27 -8 27 C-13.93301435 9.73069036 -13.93301435 9.73069036 -13 2 C-9.50504013 -1.49495987 -4.46845925 -1.48948642 0 0 Z " fill="#E68338" transform="translate(39,74)"/>
<path d="M0 0 C0.99 0 1.98 0 3 0 C3 0.66 3 1.32 3 2 C2.34 2.66 1.68 3.32 1 4 C2.49743119 5.49743119 3.98824239 5.33202693 6.0625 5.5625 C7.361875 5.706875 8.66125 5.85125 10 6 C10 6.66 10 7.32 10 8 C11.65 8 13.3 8 15 8 C14.67 9.32 14.34 10.64 14 12 C11.03 11.505 11.03 11.505 8 11 C8 10.34 8 9.68 8 9 C7.278125 8.855625 6.55625 8.71125 5.8125 8.5625 C3.20833333 8.04166667 0.60416667 7.52083333 -2 7 C-1.125 1.125 -1.125 1.125 0 0 Z " fill="#F57A1C" transform="translate(156,76)"/>
<path d="M0 0 C-2.64 0.99 -5.28 1.98 -8 3 C-7.67 3.99 -7.34 4.98 -7 6 C-7.66 6.66 -8.32 7.32 -9 8 C-9 7.34 -9 6.68 -9 6 C-9.66 6 -10.32 6 -11 6 C-10.505 7.216875 -10.01 8.43375 -9.5 9.6875 C-8.27520559 12.92486738 -7.67196815 15.50099357 -8 19 C-8.66 19.33 -9.32 19.66 -10 20 C-10.53414112 18.10787298 -11.05178329 16.21108364 -11.5625 14.3125 C-11.85253906 13.25675781 -12.14257812 12.20101562 -12.44140625 11.11328125 C-13.00877004 7.9511208 -13.01057031 6.03171092 -12 3 C-7.80387314 -0.09188295 -5.15475323 -1.28868831 0 0 Z " fill="#FAE3C2" transform="translate(39,38)"/>
<path d="M0 0 C0.33 0 0.66 0 1 0 C1 1.65 1 3.3 1 5 C-3.29 5.99 -7.58 6.98 -12 8 C-12 7.34 -12 6.68 -12 6 C-13.32 5.67 -14.64 5.34 -16 5 C-14.92878906 4.72285156 -13.85757813 4.44570312 -12.75390625 4.16015625 C-11.35672373 3.79445076 -9.95959085 3.42855554 -8.5625 3.0625 C-7.85544922 2.88009766 -7.14839844 2.69769531 -6.41992188 2.50976562 C-2.92425139 1.81850626 -2.92425139 1.81850626 0 0 Z " fill="#E48841" transform="translate(106,80)"/>
<path d="M0 0 C-5.15723297 2.7769716 -10.07852663 4.64363841 -16 4 C-18.375 2.5 -18.375 2.5 -20 1 C-19.67 0.34 -19.34 -0.32 -19 -1 C-18.39671875 -0.98839844 -17.7934375 -0.97679687 -17.171875 -0.96484375 C-16.37265625 -0.95582031 -15.5734375 -0.94679687 -14.75 -0.9375 C-13.96109375 -0.92589844 -13.1721875 -0.91429687 -12.359375 -0.90234375 C-10.019065 -0.91282978 -10.019065 -0.91282978 -7.90625 -1.5625 C-4.95726685 -2.2393158 -2.75263115 -1.06351658 0 0 Z " fill="#E28B47" transform="translate(50,60)"/>
<path d="M0 0 C0.66 0 1.32 0 2 0 C1.835 1.216875 1.67 2.43375 1.5 3.6875 C1.10545459 6.81607836 0.90130275 9.84168804 1 13 C1.66 13 2.32 13 3 13 C3.33 14.65 3.66 16.3 4 18 C8.79300133 19.39151652 13.15135782 18.68662689 18 18 C18 18.33 18 18.66 18 19 C12.64075329 20.59837183 8.53349947 21.62749984 3 20 C-0.52680726 15.65027104 -1.14113725 11.27495785 -1.125 5.8125 C-1.12757812 4.93207031 -1.13015625 4.05164063 -1.1328125 3.14453125 C-1 1 -1 1 0 0 Z " fill="#FCE0BB" transform="translate(46,111)"/>
<path d="M0 0 C0.99 0.33 1.98 0.66 3 1 C2.01 2.485 2.01 2.485 1 4 C1.99 4.33 2.98 4.66 4 5 C4 6.65 4 8.3 4 10 C1.36 10 -1.28 10 -4 10 C-4 5.29337473 -2.96728802 4.43092677 0 1 C0 0.67 0 0.34 0 0 Z " fill="#F37B1E" transform="translate(147,29)"/>
<path d="M0 0 C-0.97582031 0.23074219 -1.95164063 0.46148437 -2.95703125 0.69921875 C-4.22933594 1.02535156 -5.50164062 1.35148437 -6.8125 1.6875 C-8.07707031 2.00074219 -9.34164062 2.31398437 -10.64453125 2.63671875 C-14.43866776 4.17822474 -15.36194898 5.32808638 -17 9 C-17.33 8.34 -17.66 7.68 -18 7 C-18.99 7 -19.98 7 -21 7 C-21.33 7.99 -21.66 8.98 -22 10 C-21.8125 7.6875 -21.8125 7.6875 -21 5 C-17.49731929 2.4863856 -14.09906872 1.28118517 -9.9375 0.25 C-8.40416016 -0.14445312 -8.40416016 -0.14445312 -6.83984375 -0.546875 C-4.10680414 -0.98295835 -2.57374074 -0.91346194 0 0 Z " fill="#E78840" transform="translate(168,50)"/>
<path d="M0 0 C-0.33 1.32 -0.66 2.64 -1 4 C-12.52164009 6.29612756 -12.52164009 6.29612756 -18 6 C-14.97744638 3.98496425 -12.43880802 3.10041857 -9 2 C-7.700625 1.443125 -7.700625 1.443125 -6.375 0.875 C-4 0 -4 0 0 0 Z " fill="#E87E2E" transform="translate(149,108)"/>
<path d="M0 0 C-3.27083062 1.82862893 -6.43065573 2.68534394 -10.078125 3.5078125 C-11.81835938 3.90419922 -11.81835938 3.90419922 -13.59375 4.30859375 C-14.8003125 4.57800781 -16.006875 4.84742187 -17.25 5.125 C-18.47203125 5.40214844 -19.6940625 5.67929688 -20.953125 5.96484375 C-23.96774004 6.64784247 -26.98335338 7.32604133 -30 8 C-30 7.34 -30 6.68 -30 6 C-28.85660156 5.72285156 -27.71320312 5.44570312 -26.53515625 5.16015625 C-25.04422535 4.79445622 -23.55334239 4.42856071 -22.0625 4.0625 C-21.30775391 3.88009766 -20.55300781 3.69769531 -19.77539062 3.50976562 C-16.08720179 2.86160821 -16.08720179 2.86160821 -13 1 C-8.62512908 0.34376936 -4.43069564 -0.13845924 0 0 Z " fill="#FDE3C2" transform="translate(86,86)"/>
<path d="M0 0 C0 0.66 0 1.32 0 2 C-1.98 2 -3.96 2 -6 2 C-6 2.66 -6 3.32 -6 4 C-5.01 4 -4.02 4 -3 4 C-3.33 4.99 -3.66 5.98 -4 7 C-4 6.34 -4 5.68 -4 5 C-4.66 5 -5.32 5 -6 5 C-6.33 8.3 -6.66 11.6 -7 15 C-9.37247875 10.25504251 -9.25100218 8.18737832 -9 3 C-8 1 -8 1 -6.1875 0.375 C-4 0 -4 0 0 0 Z " fill="#FAE9CD" transform="translate(42,75)"/>
<path d="M0 0 C0.125 2.875 0.125 2.875 0 6 C-0.66 6.66 -1.32 7.32 -2 8 C-3.32 8 -4.64 8 -6 8 C-6.1875 5.125 -6.1875 5.125 -6 2 C-3 0 -3 0 0 0 Z " fill="#ED9B22" transform="translate(83,67)"/>
<path d="M0 0 C-0.33 1.32 -0.66 2.64 -1 4 C-2.65 4.33 -4.3 4.66 -6 5 C-6 4.34 -6 3.68 -6 3 C-6.825 3.33 -7.65 3.66 -8.5 4 C-12.5873983 5.16782809 -15.76923344 5.1458885 -20 5 C-20 4.67 -20 4.34 -20 4 C-17.04222581 3.33076624 -14.08383702 2.66450361 -11.125 2 C-10.28324219 1.80921875 -9.44148438 1.6184375 -8.57421875 1.421875 C-7.76855469 1.24140625 -6.96289062 1.0609375 -6.1328125 0.875 C-5.38918457 0.70742188 -4.64555664 0.53984375 -3.87939453 0.3671875 C-2 0 -2 0 0 0 Z " fill="#E18C47" transform="translate(130,37)"/>
<path d="M0 0 C-7.268186 4.84545733 -15.38354731 6.57443018 -24 6 C-20.51812247 3.67874831 -17.12828961 2.84877315 -13.125 1.875 C-12.41730469 1.69324219 -11.70960937 1.51148438 -10.98046875 1.32421875 C-7.25197827 0.40077511 -3.8442625 -0.22613309 0 0 Z " fill="#FCE3C2" transform="translate(64,31)"/>
<path d="M0 0 C-1.98 0.33 -3.96 0.66 -6 1 C-6 1.66 -6 2.32 -6 3 C-5.34 3.33 -4.68 3.66 -4 4 C-6.31 4.33 -8.62 4.66 -11 5 C-11 4.34 -11 3.68 -11 3 C-13.64 3.33 -16.28 3.66 -19 4 C-15.91433716 1.94289144 -13.63014688 1.21653907 -10.0625 0.3125 C-8.50208984 -0.09548828 -8.50208984 -0.09548828 -6.91015625 -0.51171875 C-4.1294044 -0.97828785 -2.61519118 -0.93894816 0 0 Z " fill="#E58F4F" transform="translate(71,102)"/>
<path d="M0 0 C0.99 0.33 1.98 0.66 3 1 C3 1.99 3 2.98 3 4 C7.95 3.67 12.9 3.34 18 3 C12.19074358 5.90462821 8.45867154 7.53777894 2 6 C1.34 4.02 0.68 2.04 0 0 Z " fill="#FCE5C4" transform="translate(35,91)"/>
<path d="M0 0 C0.33 0.66 0.66 1.32 1 2 C3.02463255 2.65213292 3.02463255 2.65213292 5 3 C0.40074698 4.53308434 -2.32976405 5.00076485 -7 4 C-10.01991744 4.19417405 -13.00449581 4.57580006 -16 5 C-12.69001895 2.79334596 -10.17978564 2.21737905 -6.3125 1.375 C-4.54326172 0.98441406 -4.54326172 0.98441406 -2.73828125 0.5859375 C-1.38283203 0.29589844 -1.38283203 0.29589844 0 0 Z " fill="#E28844" transform="translate(78,88)"/>
<path d="M0 0 C1.32 0.66 2.64 1.32 4 2 C3.88637738 3.4800841 3.75877092 4.95910074 3.625 6.4375 C3.55539063 7.26121094 3.48578125 8.08492187 3.4140625 8.93359375 C3.27742188 9.61550781 3.14078125 10.29742187 3 11 C2.01 11.495 2.01 11.495 1 12 C-1.32488647 8.36736489 -1.23961213 5.23314767 -1 1 C-0.67 0.67 -0.34 0.34 0 0 Z " fill="#F47B1F" transform="translate(28,76)"/>
<path d="M0 0 C4.62 0 9.24 0 14 0 C14 0.33 14 0.66 14 1 C10.58700991 1.8693381 7.16916192 2.71779224 3.75 3.5625 C2.78191406 3.80935547 1.81382813 4.05621094 0.81640625 4.31054688 C-0.11816406 4.53935547 -1.05273438 4.76816406 -2.015625 5.00390625 C-3.30388184 5.32597046 -3.30388184 5.32597046 -4.61816406 5.65454102 C-7 6 -7 6 -11 5 C-7.7 4.34 -4.4 3.68 -1 3 C-0.67 2.01 -0.34 1.02 0 0 Z " fill="#FEEDD3" transform="translate(75,20)"/>
<path d="M0 0 C0.33 0.66 0.66 1.32 1 2 C2.64363134 2.72159424 4.31050386 3.39351421 6 4 C6 4.66 6 5.32 6 6 C3.69 6.66 1.38 7.32 -1 8 C-1.66 7.34 -2.32 6.68 -3 6 C-2.67 5.01 -2.34 4.02 -2 3 C-1.34 3 -0.68 3 0 3 C0 2.01 0 1.02 0 0 Z " fill="#E88133" transform="translate(36,95)"/>
<path d="M0 0 C1.32 0 2.64 0 4 0 C4.99 3.96 5.98 7.92 7 12 C5.3603125 12.185625 5.3603125 12.185625 3.6875 12.375 C-0.07381802 12.75464801 -0.07381802 12.75464801 -3 15 C-3 13.68 -3 12.36 -3 11 C-0.36 10.67 2.28 10.34 5 10 C4.67 9.2575 4.34 8.515 4 7.75 C3 5 3 5 3 1 C2.01 0.67 1.02 0.34 0 0 Z " fill="#DDA448" transform="translate(80,66)"/>
<path d="M0 0 C-3.5335416 3.5335416 -8.72845244 3.89052783 -13.59375 4.125 C-15.72957313 4.125 -17.86525231 4.06776977 -20 4 C-16.76393248 2.21860706 -13.57342755 1.22819081 -10 0.3125 C-8.96875 0.04050781 -7.9375 -0.23148438 -6.875 -0.51171875 C-4.11053448 -0.98122716 -2.60249272 -0.93214283 0 0 Z " fill="#FDE9D0" transform="translate(78,55)"/>
<path d="M0 0 C1 3 1 3 1.4375 6.25 C1.91089647 10.03095369 1.91089647 10.03095369 3.125 13.6875 C3.94438485 16.78945692 4.16343388 18.0914153 3 21 C2.34 20.67 1.68 20.34 1 20 C0.62109375 17.96875 0.62109375 17.96875 0.4375 15.5 C0.4207737 12.45018475 0.4207737 12.45018475 -1 10 C-1.0979057 8.50261876 -1.12974864 7.00057108 -1.125 5.5 C-1.12757812 4.6853125 -1.13015625 3.870625 -1.1328125 3.03125 C-1 1 -1 1 0 0 Z " fill="#FDEAD2" transform="translate(16,40)"/>
<path d="M0 0 C1.21236328 0.01353516 1.21236328 0.01353516 2.44921875 0.02734375 C3.37154297 0.04474609 3.37154297 0.04474609 4.3125 0.0625 C0.5625 2.0625 0.5625 2.0625 -1.6875 2.0625 C-1.6875 2.7225 -1.6875 3.3825 -1.6875 4.0625 C-4.6575 4.0625 -7.6275 4.0625 -10.6875 4.0625 C-9.6975 3.7325 -8.7075 3.4025 -7.6875 3.0625 C-7.6875 2.4025 -7.6875 1.7425 -7.6875 1.0625 C-4.80538698 0.10179566 -2.98899956 -0.04331883 0 0 Z " fill="#E68235" transform="translate(123.6875,114.9375)"/>
<path d="M0 0 C-0.66 1.32 -1.32 2.64 -2 4 C-2.66 3.01 -3.32 2.02 -4 1 C-5.010625 1.144375 -6.02125 1.28875 -7.0625 1.4375 C-12.53125 2.21875 -12.53125 2.21875 -18 3 C-18 2.34 -18 1.68 -18 1 C-4.73684211 -2.36842105 -4.73684211 -2.36842105 0 0 Z " fill="#FFF4E0" transform="translate(104,56)"/>
<path d="M0 0 C1.32 0.66 2.64 1.32 4 2 C1.36 4.97 -1.28 7.94 -4 11 C-4.33 9.68 -4.66 8.36 -5 7 C-4.01 7 -3.02 7 -2 7 C-1.855625 6.030625 -1.71125 5.06125 -1.5625 4.0625 C-1 1 -1 1 0 0 Z " fill="#E88339" transform="translate(161,21)"/>
<path d="M0 0 C0.66 0 1.32 0 2 0 C2 0.66 2 1.32 2 2 C0.33333333 3.66666667 -1.33333333 5.33333333 -3 7 C-3.37125 7.7425 -3.7425 8.485 -4.125 9.25 C-4.41375 9.8275 -4.7025 10.405 -5 11 C-5.99 11.33 -6.98 11.66 -8 12 C-8.33 12.66 -8.66 13.32 -9 14 C-9.66 13.67 -10.32 13.34 -11 13 C-9.54300902 11.20724155 -8.08436345 9.41582771 -6.625 7.625 C-5.40683594 6.12839844 -5.40683594 6.12839844 -4.1640625 4.6015625 C-2 2 -2 2 0 0 Z " fill="#E38844" transform="translate(158,14)"/>
<path d="M0 0 C-3.07692746 2.6815279 -5.19734663 3.42087807 -9.25 3.6875 C-10.14203125 3.75324219 -11.0340625 3.81898437 -11.953125 3.88671875 C-12.62859375 3.92410156 -13.3040625 3.96148438 -14 4 C-14 3.01 -14 2.02 -14 1 C-9.32798795 -0.20568053 -4.78503708 -0.09382426 0 0 Z " fill="#E78135" transform="translate(98,20)"/>
<path d="M0 0 C-0.99 0.495 -0.99 0.495 -2 1 C-2 1.66 -2 2.32 -2 3 C-5.3 3.33 -8.6 3.66 -12 4 C-12 3.01 -12 2.02 -12 1 C-7.95858806 0.36605303 -4.0934693 -0.12404452 0 0 Z " fill="#E88130" transform="translate(124,89)"/>
<path d="M0 0 C1.32 0.33 2.64 0.66 4 1 C4 4.3 4 7.6 4 11 C1.75 12.125 1.75 12.125 -1 13 C-3.3125 12.125 -3.3125 12.125 -5 11 C-2.69 10.01 -0.38 9.02 2 8 C2 5.69 2 3.38 2 1 C1.34 0.67 0.68 0.34 0 0 Z " fill="#FDEBD3" transform="translate(172,48)"/>
<path d="M0 0 C0.66 0.33 1.32 0.66 2 1 C1.34 2.32 0.68 3.64 0 5 C-0.33 5 -0.66 5 -1 5 C-0.67 9.62 -0.34 14.24 0 19 C-2.83456835 13.33086329 -3.39995986 9.29936779 -3 3 C-1.5 1 -1.5 1 0 0 Z " fill="#E28541" transform="translate(38,109)"/>
<path d="M0 0 C-3.25641668 1.80476105 -6.45336795 2.73948805 -10.0625 3.625 C-11.62677734 4.01558594 -11.62677734 4.01558594 -13.22265625 4.4140625 C-16 5 -16 5 -19 5 C-18.67 4.01 -18.34 3.02 -18 2 C-17.07767578 1.90912109 -17.07767578 1.90912109 -16.13671875 1.81640625 C-15.32847656 1.73261719 -14.52023438 1.64882813 -13.6875 1.5625 C-12.88699219 1.48128906 -12.08648437 1.40007813 -11.26171875 1.31640625 C-1.59801136 -0.03551136 -1.59801136 -0.03551136 0 0 Z " fill="#FFF3DD" transform="translate(64,26)"/>
<path d="M0 0 C0.99 0 1.98 0 3 0 C1.63629701 2.99220268 0.05091917 5.29026529 -2.125 7.75 C-2.93324219 8.67039062 -2.93324219 8.67039062 -3.7578125 9.609375 C-4.16773438 10.06828125 -4.57765625 10.5271875 -5 11 C-5.33 10.01 -5.66 9.02 -6 8 C-4.890625 5.95703125 -4.890625 5.95703125 -3.25 3.8125 C-2.71890625 3.09707031 -2.1878125 2.38164062 -1.640625 1.64453125 C-1.09921875 1.10183594 -0.5578125 0.55914063 0 0 Z " fill="#FEEED9" transform="translate(152,17)"/>
<path d="M0 0 C1.65 0.33 3.3 0.66 5 1 C5.33 3.31 5.66 5.62 6 8 C2.93882432 10.62386487 2.26826873 11 -2 11 C-2 10.34 -2 9.68 -2 9 C-0.35 9 1.3 9 3 9 C3.33 6.69 3.66 4.38 4 2 C2.68 1.34 1.36 0.68 0 0 Z " fill="#E18B4C" transform="translate(169,48)"/>
<path d="M0 0 C0 0.66 0 1.32 0 2 C3.465 1.505 3.465 1.505 7 1 C3.99559979 3.00293347 2.29006055 3.49271626 -1.1875 4.125 C-2.08855469 4.29257812 -2.98960938 4.46015625 -3.91796875 4.6328125 C-4.60503906 4.75398438 -5.29210937 4.87515625 -6 5 C-5.67 4.34 -5.34 3.68 -5 3 C-5.99 2.34 -6.98 1.68 -8 1 C-5.10765685 0.17361624 -3.11257569 0 0 0 Z " fill="#E4904D" transform="translate(100,18)"/>
<path d="M0 0 C0 0.66 0 1.32 0 2 C-5.48675196 3.86783046 -10.22192976 4.2358396 -16 4 C-13.36518239 2.60025314 -10.89629292 1.58775959 -8 0.875 C-7.34 0.70742187 -6.68 0.53984375 -6 0.3671875 C-4 0 -4 0 0 0 Z " fill="#FDEAD1" transform="translate(76,93)"/>
<path d="M0 0 C-0.639375 0.309375 -1.27875 0.61875 -1.9375 0.9375 C-3.93610821 1.8345163 -3.93610821 1.8345163 -5 3 C-5.23075082 4.34747084 -5.41153063 5.70377565 -5.5625 7.0625 C-5.7790625 9.0115625 -5.7790625 9.0115625 -6 11 C-8 9 -8 9 -8.1953125 7.0546875 C-8.13020833 5.03645833 -8.06510417 3.01822917 -8 1 C-5.29120665 -0.35439668 -2.99066732 -0.06501451 0 0 Z " fill="#FCE5CE" transform="translate(32,73)"/>
<path d="M0 0 C0.99 0.66 1.98 1.32 3 2 C0.03 2.66 -2.94 3.32 -6 4 C-6 3.34 -6 2.68 -6 2 C-7.32 1.67 -8.64 1.34 -10 1 C-3.57884427 -1.48090108 -3.57884427 -1.48090108 0 0 Z " fill="#E38E4D" transform="translate(42,72)"/>
<path d="M0 0 C-4.48074195 3.36055646 -7.60550707 3.27429625 -13 3 C-12.67 2.01 -12.34 1.02 -12 0 C-3.42857143 -1.28571429 -3.42857143 -1.28571429 0 0 Z " fill="#FEECD3" transform="translate(161,62)"/>
<path d="M0 0 C-0.99 0.33 -1.98 0.66 -3 1 C-2.01 1.66 -1.02 2.32 0 3 C-2.31 3.33 -4.62 3.66 -7 4 C-7 3.67 -7 3.34 -7 3 C-8.65 2.67 -10.3 2.34 -12 2 C-12 1.67 -12 1.34 -12 1 C-3.96428571 -1.27678571 -3.96428571 -1.27678571 0 0 Z " fill="#E18E4E" transform="translate(90,124)"/>
<path d="M0 0 C-0.33 1.32 -0.66 2.64 -1 4 C-4.04386724 4.08226668 -6.07175348 3.97608217 -9 3 C-10.33106622 2.65772583 -11.66400079 2.32248257 -13 2 C-4.57142857 -0.28571429 -4.57142857 -0.28571429 0 0 Z " fill="#E18F51" transform="translate(128,87)"/>
<path d="M0 0 C0.98484375 0.02707031 1.9696875 0.05414063 2.984375 0.08203125 C3.73203125 0.11683594 4.4796875 0.15164063 5.25 0.1875 C2.66464321 1.91107119 1.21188386 2.63485018 -1.6875 3.375 C-2.35652344 3.55417969 -3.02554688 3.73335937 -3.71484375 3.91796875 C-5.99680888 4.22018678 -7.57026659 3.87506692 -9.75 3.1875 C-6.47698081 0.21840402 -4.36934238 -0.15604794 0 0 Z " fill="#FEEFD8" transform="translate(113.75,11.8125)"/>
<path d="M0 0 C0 0.33 0 0.66 0 1 C0.99 1.33 1.98 1.66 3 2 C0.69 2.33 -1.62 2.66 -4 3 C-4 2.34 -4 1.68 -4 1 C-4.99 1.495 -4.99 1.495 -6 2 C-7.99960012 2.039992 -10.00047242 2.04346799 -12 2 C-12 1.67 -12 1.34 -12 1 C-3.96428571 -1.27678571 -3.96428571 -1.27678571 0 0 Z " fill="#E19051" transform="translate(87,98)"/>
<path d="M0 0 C-1.20703125 1.51953125 -1.20703125 1.51953125 -3 3 C-5.26171875 3.07421875 -5.26171875 3.07421875 -7.6875 2.6875 C-8.89986328 2.50767578 -8.89986328 2.50767578 -10.13671875 2.32421875 C-10.75160156 2.21722656 -11.36648437 2.11023438 -12 2 C-7.66032699 -0.21504143 -4.80574417 -1.54470348 0 0 Z " fill="#FCEAD3" transform="translate(86,129)"/>
<path d="M0 0 C7.38461538 -0.36923077 7.38461538 -0.36923077 10.5 1.5 C10.995 1.995 11.49 2.49 12 3 C7.45194365 3.17835515 4.1205746 2.99785435 0 1 C0 0.67 0 0.34 0 0 Z " fill="#E8863F" transform="translate(169,90)"/>
<path d="M0 0 C0.33 1.65 0.66 3.3 1 5 C0.34 4.34 -0.32 3.68 -1 3 C-1.99 3.66 -2.98 4.32 -4 5 C-4 3.68 -4 2.36 -4 1 C-4.66 0.67 -5.32 0.34 -6 0 C-3.50907189 -1.24546405 -2.58919267 -0.7767578 0 0 Z " fill="#FAF3E1" transform="translate(74,69)"/>
<path d="M0 0 C0 0.66 0 1.32 0 2 C-1.093125 2.12375 -2.18625 2.2475 -3.3125 2.375 C-7.07381802 2.75464801 -7.07381802 2.75464801 -10 5 C-10 3.68 -10 2.36 -10 1 C-6.52674819 -0.1577506 -3.63932552 -0.06866652 0 0 Z " fill="#FCE8D1" transform="translate(165,12)"/>
<path d="M0 0 C-0.33 0.99 -0.66 1.98 -1 3 C-4.3 3.33 -7.6 3.66 -11 4 C-10.34 3.01 -9.68 2.02 -9 1 C-5.96178507 0.40320778 -3.09749094 0 0 0 Z " fill="#E87E2D" transform="translate(83,99)"/>
<path d="M0 0 C1.9375 0.3125 1.9375 0.3125 4 1 C4.33 1.99 4.66 2.98 5 4 C2.36 4 -0.28 4 -3 4 C-2.67 3.34 -2.34 2.68 -2 2 C-1.34 2 -0.68 2 0 2 C0 1.34 0 0.68 0 0 Z " fill="#DD8B49" transform="translate(138,83)"/>
<path d="M0 0 C2.97 0 5.94 0 9 0 C6.14521674 1.90318884 4.58058692 2.4619099 1.3125 3.125 C0.50425781 3.29257813 -0.30398437 3.46015625 -1.13671875 3.6328125 C-1.75160156 3.75398438 -2.36648437 3.87515625 -3 4 C-3 3.34 -3 2.68 -3 2 C-2.01 2 -1.02 2 0 2 C0 1.34 0 0.68 0 0 Z " fill="#FEF2DD" transform="translate(36,69)"/>
<path d="M0 0 C0.99 0.66 1.98 1.32 3 2 C0.69 2.33 -1.62 2.66 -4 3 C-4 2.34 -4 1.68 -4 1 C-4.99 0.67 -5.98 0.34 -7 0 C-3.8195064 -1.06016453 -3.04021693 -1.04507457 0 0 Z " fill="#E08946" transform="translate(53,96)"/>
<path d="M0 0 C-0.66 0 -1.32 0 -2 0 C-2 0.66 -2 1.32 -2 2 C-5.3 2 -8.6 2 -12 2 C-4.86956522 -1.56521739 -4.86956522 -1.56521739 0 0 Z " fill="#FBE5C6" transform="translate(122,93)"/>
<path d="M0 0 C4.875 1.875 4.875 1.875 6 3 C6.04063832 4.66617115 6.042721 6.33388095 6 8 C5.01 8.495 5.01 8.495 4 9 C3.67 6.69 3.34 4.38 3 2 C2.01 1.67 1.02 1.34 0 1 C0 0.67 0 0.34 0 0 Z " fill="#E58844" transform="translate(178,83)"/>
<path d="M0 0 C2.0625 0.4375 2.0625 0.4375 4 1 C3.01 1.495 3.01 1.495 2 2 C1.53476937 3.89533342 1.53476937 3.89533342 1.375 6.0625 C1.25125 7.361875 1.1275 8.66125 1 10 C-1.29404844 6.55892734 -1.26293056 5.03160191 -1 1 C-0.67 0.67 -0.34 0.34 0 0 Z " fill="#DCA94F" transform="translate(76,67)"/>
<path d="M0 0 C0 0.66 0 1.32 0 2 C-3.21451269 3.60725635 -6.43612536 3.05748185 -10 3 C-6.1865669 0.45771127 -4.5252563 -0.11908569 0 0 Z " fill="#E77E31" transform="translate(86,61)"/>
<path d="M0 0 C0 0.66 0 1.32 0 2 C-3.3 2 -6.6 2 -10 2 C-6.19832777 -0.53444815 -4.31588991 -1.33941411 0 0 Z " fill="#FBE7C8" transform="translate(114,19)"/>
<path d="M0 0 C-0.33 1.32 -0.66 2.64 -1 4 C-1.99 4 -2.98 4 -4 4 C-4 3.34 -4 2.68 -4 2 C-5.32 1.67 -6.64 1.34 -8 1 C-5.10765685 0.17361624 -3.11257569 0 0 0 Z " fill="#DD945B" transform="translate(149,108)"/>
<path d="M0 0 C3.125 -0.1875 3.125 -0.1875 6 0 C6.33 0.66 6.66 1.32 7 2 C2.545 2.495 2.545 2.495 -2 3 C-1.34 2.01 -0.68 1.02 0 0 Z " fill="#FAEFD8" transform="translate(142,106)"/>
<path d="M0 0 C0.99 0.33 1.98 0.66 3 1 C1.68 1.33 0.36 1.66 -1 2 C-0.67 1.34 -0.34 0.68 0 0 Z M-6 2 C-4.35 2 -2.7 2 -1 2 C-1.66 3.98 -2.32 5.96 -3 8 C-4 6 -5 4 -6 2 Z " fill="#F3F8E9" transform="translate(90,63)"/>
<path d="M0 0 C0 0.66 0 1.32 0 2 C0.99 2.33 1.98 2.66 3 3 C1.35 3.33 -0.3 3.66 -2 4 C-2 3.34 -2 2.68 -2 2 C-3.98 2 -5.96 2 -8 2 C-4.91190305 0.23537317 -3.76687864 0 0 0 Z " fill="#E58F51" transform="translate(66,65)"/>
<path d="M0 0 C2 1 2 1 4 4 C4.125 7.1875 4.125 7.1875 4 10 C1.2027092 7.93243723 0.97307727 6.85559629 0.3125 3.3125 C0.209375 2.219375 0.10625 1.12625 0 0 Z " fill="#E58034" transform="translate(19,54)"/>
<path d="M0 0 C0.66 0.99 1.32 1.98 2 3 C-0.97 5.475 -0.97 5.475 -4 8 C-2.25 2.25 -2.25 2.25 0 0 Z " fill="#E88336" transform="translate(146,28)"/>
<path d="M0 0 C-3.08888522 2.05925681 -3.70935927 2.2390374 -7.1875 2.125 C-9.0746875 2.063125 -9.0746875 2.063125 -11 2 C-6.98764085 -0.6749061 -4.6342454 -1.48957888 0 0 Z " fill="#FCE3C6" transform="translate(87,91)"/>
<path d="M0 0 C0 1.65 0 3.3 0 5 C-1.65 5.33 -3.3 5.66 -5 6 C-4.67 5.34 -4.34 4.68 -4 4 C-4.66 3.34 -5.32 2.68 -6 2 C-1.125 0 -1.125 0 0 0 Z " fill="#DC9259" transform="translate(107,80)"/>
<path d="M0 0 C-2 2 -2 2 -5.625 2.125 C-6.73875 2.08375 -7.8525 2.0425 -9 2 C-8 0 -8 0 -6.1875 -0.6875 C-3.81180233 -1.02688538 -2.26664171 -0.72856341 0 0 Z " fill="#E97E30" transform="translate(50,71)"/>
<path d="M0 0 C0.763125 0.20625 1.52625 0.4125 2.3125 0.625 C2.3125 1.615 2.3125 2.605 2.3125 3.625 C1.3225 3.625 0.3325 3.625 -0.6875 3.625 C-0.6875 2.965 -0.6875 2.305 -0.6875 1.625 C-2.3375 1.625 -3.9875 1.625 -5.6875 1.625 C-2.6875 -0.375 -2.6875 -0.375 0 0 Z " fill="#E09860" transform="translate(98.6875,56.375)"/>
<path d="M0 0 C3.02419525 0.58803797 6.01758453 1.22678118 9 2 C9 2.99 9 3.98 9 5 C5.54074837 3.7508258 2.85306797 2.32472205 0 0 Z " fill="#E88034" transform="translate(155,83)"/>
<path d="M0 0 C-3.26545761 1.88391785 -6.28111761 2.49287967 -10 3 C-9.67 2.01 -9.34 1.02 -9 0 C-5.52176885 -1.15941038 -3.54104422 -0.70820884 0 0 Z " fill="#FBEACC" transform="translate(105,81)"/>
<path d="M0 0 C0.33 0.66 0.66 1.32 1 2 C-0.093125 2.12375 -1.18625 2.2475 -2.3125 2.375 C-6.07381802 2.75464801 -6.07381802 2.75464801 -9 5 C-9 3.68 -9 2.36 -9 1 C-4.545 0.505 -4.545 0.505 0 0 Z " fill="#E1B66D" transform="translate(86,76)"/>
<path d="M0 0 C3.375 4.5 3.375 4.5 3 9 C2.01 9.495 2.01 9.495 1 10 C0.67 6.7 0.34 3.4 0 0 Z " fill="#FCEDD5" transform="translate(28,48)"/>
<path d="M0 0 C1.5 1 1.5 1 3 3 C3.27345479 5.71846235 3.13491285 8.25677199 3 11 C0.87953208 7.46588679 0.46800711 4.05606165 0 0 Z " fill="#E78E4B" transform="translate(16,43)"/>
</svg>
